<?xml version="1.0" encoding="utf-8"?>
<!-- Generator: Adobe Illustrator 25.4.1, SVG Export Plug-In . SVG Version: 6.00 Build 0)  -->
<svg version="1.1" id="Capa_1" xmlns="http://www.w3.org/2000/svg" xmlns:xlink="http://www.w3.org/1999/xlink" x="0px" y="0px"
	 viewBox="0 0 156.9 154.5" style="enable-background:new 0 0 156.9 154.5;" xml:space="preserve">
<g>
	<path d="M105.7,102.6c-12.2-0.2-22.1-3.2-31-9.4c-0.9-0.6-1.4-0.5-2.1,0.2c-3.7,3.7-7.5,7.4-11.2,11c-0.7,0.7-0.8,1.1,0,1.8
		c1.3,1.2,2.5,2.5,3.8,3.7c0.8,0.8,0.9,1.2,0,2.1c-8.6,8.4-17.1,16.8-25.7,25.2c-5.5,5.4-11,10.9-16.6,16.3c-1.4,1.4-1.4,1.4-2.7,0
		c-6.3-6.2-12.5-12.4-18.8-18.6c-1.8-1.8-1.8-1.8,0-3.6c13.8-13.6,27.7-27.2,41.5-40.8c1.3-1.2,1.2-1.2,2.5,0
		c1.2,1.2,2.4,2.4,3.6,3.6c0.5,0.5,0.9,0.7,1.4,0.1c3.9-3.9,7.8-7.7,11.8-11.6c0.6-0.6,0.4-1.1,0-1.6c-2.8-3.9-5.1-8.1-6.6-12.6
		c-1.8-5.1-2.8-10.3-2.9-15.8C52.4,43.5,54.4,35,58.8,27c4.1-7.4,9.7-13.5,16.8-18.3c6.2-4.1,12.9-6.8,20.2-8
		C111.7-1.8,126,2,138.4,12.2c10.3,8.5,16.3,19.4,18,32.5c1.9,14.9-2.2,28.3-12,39.8c-8.2,9.7-18.9,15.4-31.5,17.5
		C110.2,102.4,107.3,102.8,105.7,102.6z M104.7,10.8c-22.4-0.2-41.2,17.9-41.2,40.3c-0.1,22.6,18.4,40.7,41.2,40.7
		c23,0,41.2-18.5,41.2-40.5C146,29.3,127.5,10.5,104.7,10.8z"/>
	<path d="M105,22.2c7.2,0.2,14.2,2.6,20.7,6.6c1.3,0.8,1.6,1.9,0.9,2.8c-0.7,0.9-1.7,1-3,0.3c-5.8-3.6-12.1-5.9-19.1-5.9
		c-6.2-0.1-11.5,2.1-16.1,6c-0.9,0.8-1.7,1.6-2.5,2.4c-0.8,0.9-2.1,0.9-2.8,0.2c-0.7-0.7-0.7-1.8,0.1-2.7
		C88.9,25.7,95.9,22.3,105,22.2z"/>
</g>
</svg>
